<svg width="752" height="738" xmlns="http://www.w3.org/2000/svg" xmlns:xlink="http://www.w3.org/1999/xlink" xml:space="preserve" overflow="hidden"><defs><filter id="fx0" x="-10%" y="-10%" width="120%" height="120%" filterUnits="userSpaceOnUse" primitiveUnits="userSpaceOnUse"><feComponentTransfer color-interpolation-filters="sRGB"><feFuncR type="discrete" tableValues="0.431373 0.431373"/><feFuncG type="discrete" tableValues="0.454902 0.454902"/><feFuncB type="discrete" tableValues="0.478431 0.478431"/><feFuncA type="linear" slope="0.431373" intercept="0"/></feComponentTransfer><feGaussianBlur stdDeviation="4.58333 4.58333"/></filter><clipPath id="clip1"><rect x="864" y="1101" width="752" height="738"/></clipPath></defs><g clip-path="url(#clip1)" transform="translate(-864 -1101)"><g filter="url(#fx0)" transform="translate(863 1100)"><g><path d="M310.333 234.589C310.267 234.605 310.202 234.62 310.136 234.636 295.542 291.9 283.898 346.596 268.085 395.538 295.947 399.095 325.43 401.901 356.026 402.441 340.57 344.425 325.971 287.882 310.333 234.589ZM498.956 228.061C500.073 228.326 501.554 229.005 503.367 230.097 505.185 231.192 507.468 232.802 510.164 234.92 512.77 236.967 514.953 238.862 516.763 240.583 518.578 242.308 519.961 243.823 520.963 245.117 521.964 246.409 522.691 247.602 523.168 248.679 523.645 249.753 523.878 250.687 523.878 251.479 523.878 304.837 523.878 358.197 523.878 411.555 523.878 420.269 523.344 428.685 521.672 436.796 519.97 445.054 517.834 453.238 514.045 461.029 510.156 469.023 505.567 477.038 499.375 484.518 493.098 492.101 485.392 499.266 475.68 505.036 472.375 506.999 469.036 508.554 465.711 509.639 462.367 510.73 459.268 511.345 456.421 511.504 453.576 511.664 451.064 511.471 448.933 511.002 446.789 510.53 445.367 509.89 444.666 509.181 443.961 508.47 443.4 507.69 442.95 506.87 442.498 506.047 442.13 504.981 441.806 503.69 441.481 502.395 441.269 500.729 441.139 498.698 441.009 496.666 440.948 494.153 440.948 491.163 440.948 487.508 441.036 484.445 441.234 481.979 441.432 479.516 441.756 477.497 442.283 475.946 442.809 474.396 443.38 473.208 444.093 472.44 444.807 471.671 445.648 471.109 446.667 470.811 447.682 470.514 448.947 470.761 450.532 471.44 452.111 472.115 453.961 472.895 456.143 473.517 458.315 474.136 460.802 474.57 463.608 474.597 466.411 474.623 469.643 473.783 473.37 472.185 477.437 470.441 480.723 468.041 483.598 465.555 486.452 463.088 488.529 459.581 490.507 455.547 492.458 451.568 493.559 446.489 494.583 440.577 495.599 434.713 495.942 427.373 495.942 418.577 495.942 355.918 495.942 293.259 495.942 230.601 495.942 229.654 496.161 228.922 496.614 228.425 497.065 227.931 497.843 227.797 498.956 228.061ZM328.661 185.717C330.408 186.036 331.76 186.783 332.704 187.924 333.652 189.07 334.393 190.575 334.935 192.43 365.504 297.828 393.035 406.635 423.578 508.018 424.64 511.515 425.191 514.41 425.257 516.711 425.323 519.01 424.832 520.921 423.776 522.437 422.72 523.951 420.984 525.245 418.519 526.259 416.063 527.27 412.765 528.299 408.594 529.204 404.422 530.109 401.066 530.569 398.551 530.708 396.034 530.849 394.125 530.66 392.831 530.202 391.529 529.742 390.572 529.001 389.957 527.995 389.34 526.986 388.76 525.7 388.212 524.14 380.539 496.362 372.939 468.15 365.313 439.687 328.578 439.362 293.217 433.085 260.4 424.787 253.581 445.195 248.433 464.81 242.064 482.581 241.718 483.574 241.281 484.334 240.713 484.822 240.148 485.308 239.345 485.502 238.287 485.355 237.226 485.208 235.719 484.554 233.795 483.407 231.863 482.255 229.376 480.495 226.349 478.159 223.206 475.732 220.698 473.521 218.723 471.632 216.766 469.759 215.424 468.064 214.624 466.619 213.828 465.178 213.467 463.712 213.521 462.23 213.575 460.746 213.979 459.067 214.861 457.225 243.8 396.233 263.917 308.385 289.88 205.514 290.39 203.507 291.052 201.755 291.878 200.264 292.705 198.772 293.906 197.362 295.498 196.061 297.091 194.758 299.143 193.483 301.658 192.295 304.172 191.107 307.386 189.827 311.32 188.571 315.516 187.23 319.039 186.378 321.834 185.912 324.634 185.445 326.919 185.399 328.661 185.717ZM377 65.8888C205.112 65.8888 65.769 202.118 65.769 370.167 65.769 538.215 205.112 674.444 377 674.444 548.887 674.444 688.23 538.215 688.23 370.167 688.23 202.118 548.887 65.8888 377 65.8888ZM377 15.1665C576.927 15.1665 739 174.105 739 370.167 739 566.228 576.927 725.167 377 725.167 177.073 725.167 14.9999 566.228 14.9999 370.167 14.9999 174.105 177.073 15.1665 377 15.1665Z" fill="#FF3300" fill-rule="evenodd"/></g></g><path d="M1173.33 1325.42C1173.27 1325.44 1173.2 1325.45 1173.14 1325.47 1158.54 1382.73 1146.9 1437.43 1131.08 1486.37 1158.95 1489.93 1188.43 1492.73 1219.03 1493.27 1203.57 1435.26 1188.97 1378.72 1173.33 1325.42ZM1361.96 1318.89C1363.07 1319.16 1364.55 1319.84 1366.37 1320.93 1368.18 1322.03 1370.47 1323.64 1373.16 1325.75 1375.77 1327.8 1377.95 1329.7 1379.76 1331.42 1381.58 1333.14 1382.96 1334.66 1383.96 1335.95 1384.96 1337.24 1385.69 1338.44 1386.17 1339.51 1386.64 1340.59 1386.88 1341.52 1386.88 1342.31 1386.88 1395.67 1386.88 1449.03 1386.88 1502.39 1386.88 1511.1 1386.34 1519.52 1384.67 1527.63 1382.97 1535.89 1380.83 1544.07 1377.04 1551.86 1373.16 1559.86 1368.57 1567.87 1362.37 1575.35 1356.1 1582.93 1348.39 1590.1 1338.68 1595.87 1335.37 1597.83 1332.04 1599.39 1328.71 1600.47 1325.37 1601.56 1322.27 1602.18 1319.42 1602.34 1316.58 1602.5 1314.06 1602.3 1311.93 1601.84 1309.79 1601.36 1308.37 1600.72 1307.67 1600.01 1306.96 1599.3 1306.4 1598.52 1305.95 1597.7 1305.5 1596.88 1305.13 1595.81 1304.81 1594.52 1304.48 1593.23 1304.27 1591.56 1304.14 1589.53 1304.01 1587.5 1303.95 1584.99 1303.95 1582 1303.95 1578.34 1304.04 1575.28 1304.23 1572.81 1304.43 1570.35 1304.76 1568.33 1305.28 1566.78 1305.81 1565.23 1306.38 1564.04 1307.09 1563.27 1307.81 1562.5 1308.65 1561.94 1309.67 1561.64 1310.68 1561.35 1311.95 1561.59 1313.53 1562.27 1315.11 1562.95 1316.96 1563.73 1319.14 1564.35 1321.31 1564.97 1323.8 1565.4 1326.61 1565.43 1329.41 1565.46 1332.64 1564.62 1336.37 1563.02 1340.44 1561.27 1343.72 1558.87 1346.6 1556.39 1349.45 1553.92 1351.53 1550.41 1353.51 1546.38 1355.46 1542.4 1356.56 1537.32 1357.58 1531.41 1358.6 1525.55 1358.94 1518.21 1358.94 1509.41 1358.94 1446.75 1358.94 1384.09 1358.94 1321.43 1358.94 1320.49 1359.16 1319.76 1359.61 1319.26 1360.07 1318.76 1360.84 1318.63 1361.96 1318.89ZM1191.66 1276.55C1193.41 1276.87 1194.76 1277.62 1195.7 1278.76 1196.65 1279.9 1197.39 1281.41 1197.93 1283.26 1228.5 1388.66 1256.04 1497.47 1286.58 1598.85 1287.64 1602.35 1288.19 1605.24 1288.26 1607.54 1288.32 1609.84 1287.83 1611.75 1286.78 1613.27 1285.72 1614.78 1283.98 1616.08 1281.52 1617.09 1279.06 1618.1 1275.76 1619.13 1271.59 1620.04 1267.42 1620.94 1264.07 1621.4 1261.55 1621.54 1259.03 1621.68 1257.13 1621.49 1255.83 1621.04 1254.53 1620.58 1253.57 1619.83 1252.96 1618.83 1252.34 1617.82 1251.76 1616.53 1251.21 1614.97 1243.54 1587.2 1235.94 1558.98 1228.31 1530.52 1191.58 1530.19 1156.22 1523.92 1123.4 1515.62 1116.58 1536.03 1111.43 1555.64 1105.06 1573.41 1104.72 1574.41 1104.28 1575.17 1103.71 1575.66 1103.15 1576.14 1102.35 1576.34 1101.29 1576.19 1100.23 1576.04 1098.72 1575.39 1096.8 1574.24 1094.86 1573.09 1092.38 1571.33 1089.35 1568.99 1086.21 1566.56 1083.7 1564.35 1081.72 1562.46 1079.77 1560.59 1078.42 1558.9 1077.62 1557.45 1076.83 1556.01 1076.47 1554.55 1076.52 1553.06 1076.58 1551.58 1076.98 1549.9 1077.86 1548.06 1106.8 1487.07 1126.92 1399.22 1152.88 1296.35 1153.39 1294.34 1154.05 1292.59 1154.88 1291.1 1155.71 1289.61 1156.91 1288.2 1158.5 1286.89 1160.09 1285.59 1162.14 1284.32 1164.66 1283.13 1167.17 1281.94 1170.39 1280.66 1174.32 1279.4 1178.52 1278.06 1182.04 1277.21 1184.83 1276.74 1187.63 1276.28 1189.92 1276.23 1191.66 1276.55ZM1240 1156.72C1068.11 1156.72 928.769 1292.95 928.769 1461 928.769 1629.05 1068.11 1765.28 1240 1765.28 1411.89 1765.28 1551.23 1629.05 1551.23 1461 1551.23 1292.95 1411.89 1156.72 1240 1156.72ZM1240 1106C1439.93 1106 1602 1264.94 1602 1461 1602 1657.06 1439.93 1816 1240 1816 1040.07 1816 878 1657.06 878 1461 878 1264.94 1040.07 1106 1240 1106Z" fill="#FF3300" fill-rule="evenodd"/></g></svg>